HIERARCHY
ROOT Hips
{
	OFFSET 0.000000 0.000000 0.000000
	CHANNELS 6 Xposition Yposition Zposition Zrotation Yrotation Xrotation 
	JOINT LHipJoint
	{
		OFFSET 0.000000 0.000000 0.000000
		CHANNELS 3 Zrotation Yrotation Xrotation
		JOINT LeftUpLeg
		{
			OFFSET 1.363060 -1.794630 0.839290
			CHANNELS 3 Zrotation Yrotation Xrotation
			JOINT LeftLeg
			{
				OFFSET 2.448110 -6.726130 0.000000
				CHANNELS 3 Zrotation Yrotation Xrotation
				JOINT LeftFoot
				{
					OFFSET 2.562200 -7.039590 0.000000
					CHANNELS 3 Zrotation Yrotation Xrotation
					JOINT LeftToeBase
					{
						OFFSET 0.157640 -0.433110 2.322550
						CHANNELS 3 Zrotation Yrotation Xrotation
						End Site
						{
							OFFSET 0.000000 0.000000 0.000000
						}
					}
				}
			}
		}
	}
	JOINT RHipJoint
	{
		OFFSET 0.000000 0.000000 0.000000
		CHANNELS 3 Zrotation Yrotation Xrotation
		JOINT RightUpLeg
		{
			OFFSET -1.305520 -1.794630 0.839290
			CHANNELS 3 Zrotation Yrotation Xrotation
			JOINT RightLeg
			{
				OFFSET -2.542530 -6.985550 0.000000
				CHANNELS 3 Zrotation Yrotation Xrotation
				JOINT RightFoot
				{
					OFFSET -2.568260 -7.056230 0.000000
					CHANNELS 3 Zrotation Yrotation Xrotation
					JOINT RightToeBase
					{
						OFFSET -0.164730 -0.452590 2.363150
						CHANNELS 3 Zrotation Yrotation Xrotation
						End Site
						{
							OFFSET 0.000000 0.000000 0.000000
						}
					}
				}
			}
		}
	}
	JOINT LowerBack
	{
		OFFSET 0.000000 0.000000 0.000000
		CHANNELS 3 Zrotation Yrotation Xrotation
		JOINT Spine
		{
			OFFSET 0.028270 2.035590 -0.193380
			CHANNELS 3 Zrotation Yrotation Xrotation
			JOINT Spine1
			{
				OFFSET 0.056720 2.048850 -0.042750
				CHANNELS 3 Zrotation Yrotation Xrotation
				JOINT Neck
				{
					OFFSET 0.000000 0.000000 0.000000
					CHANNELS 3 Zrotation Yrotation Xrotation
					JOINT Neck1
					{
						OFFSET -0.054170 1.746240 0.172020
						CHANNELS 3 Zrotation Yrotation Xrotation
						JOINT Head
						{
							OFFSET 0.104070 1.761360 -0.123970
							CHANNELS 3 Zrotation Yrotation Xrotation
							End Site
							{
								OFFSET 0.000000 0.000000 0.000000
							}
						}
					}
				}
				JOINT LeftShoulder
				{
					OFFSET 0.000000 0.000000 0.000000
					CHANNELS 3 Zrotation Yrotation Xrotation
					JOINT LeftArm
					{
						OFFSET 3.362410 1.200890 -0.311210
						CHANNELS 3 Zrotation Yrotation Xrotation
						JOINT LeftForeArm
						{
							OFFSET 4.983000 -0.000000 -0.000000
							CHANNELS 3 Zrotation Yrotation Xrotation
							JOINT LeftHand
							{
								OFFSET 3.483560 -0.000000 -0.000000
								CHANNELS 3 Zrotation Yrotation Xrotation
								JOINT LeftFingerBase
								{
									OFFSET 0.000000 0.000000 0.000000
									CHANNELS 3 Zrotation Yrotation Xrotation
									JOINT LeftHandIndex1
									{
										OFFSET 0.715260 -0.000000 -0.000000
										CHANNELS 3 Zrotation Yrotation Xrotation
										End Site
										{
											OFFSET 0.000000 0.000000 0.000000
										}
									}
								}
								JOINT LThumb
								{
									OFFSET 0.000000 0.000000 0.000000
									CHANNELS 3 Zrotation Yrotation Xrotation
									End Site
									{
										OFFSET 0.000000 0.000000 0.000000
									}
								}
							}
						}
					}
				}
				JOINT RightShoulder
				{
					OFFSET 0.000000 0.000000 0.000000
					CHANNELS 3 Zrotation Yrotation Xrotation
					JOINT RightArm
					{
						OFFSET -3.136600 1.374050 -0.404650
						CHANNELS 3 Zrotation Yrotation Xrotation
						JOINT RightForeArm
						{
							OFFSET -5.241900 -0.000000 -0.000000
							CHANNELS 3 Zrotation Yrotation Xrotation
							JOINT RightHand
							{
								OFFSET -3.444170 -0.000000 -0.000000
								CHANNELS 3 Zrotation Yrotation Xrotation
								JOINT RightFingerBase
								{
									OFFSET 0.000000 0.000000 0.000000
									CHANNELS 3 Zrotation Yrotation Xrotation
									JOINT RightHandIndex1
									{
										OFFSET -0.622530 -0.000000 -0.000000
										CHANNELS 3 Zrotation Yrotation Xrotation
										End Site
										{
											OFFSET 0.000000 0.000000 0.000000
										}
									}
								}
								JOINT RThumb
								{
									OFFSET 0.000000 0.000000 0.000000
									CHANNELS 3 Zrotation Yrotation Xrotation
									End Site
									{
										OFFSET 0.000000 0.000000 0.000000
									}
								}
							}
						}
					}
				}
			}
		}
	}
}
MOTION
Frames: 6
Frame Time: 0.008333
-10.704016 17.001853 -2.637872 5.407430 84.167547 7.300906 -10.532591 1.422945 1.393367 -11.958166 11.994551 -29.155332 -2.071168 0.488198 20.857323 1.656770 10.257884 -3.404052 0.900701 -0.000000 -17.664599 10.202298 -3.956565 -1.462641 -0.398033 -15.126945 5.019505 -0.471119 -2.684165 35.162263 -1.012381 -2.489102 19.026744 -0.829600 0.000000 -84.460800 -2.874666 0.664081 -2.089516 -1.026125 0.790139 -2.631395 -4.714837 0.731484 3.009413 9.845922 -11.856669 -9.974134 -1.481858 -0.085230 -0.602604 0.000000 0.000000 0.000000 -5.484929 27.187245 1.000016 -81.657771 32.593972 5.065312 -3.793953 -25.431974 -0.026948 -9.612201 5.672908 -0.489616 -0.014814 -0.147272 -0.000000 0.000000 0.000000 0.000000 0.000000 0.000000 0.000000 10.984054 -6.924885 0.947494 35.413510 16.344885 7.207582 2.174258 39.499693 0.013143 3.630153 5.748846 0.184479 0.044242 -0.123213 0.000000 0.000000 0.000000 0.000000 0.000000 0.000000 0.000000 
-10.499340 16.988608 -2.632885 8.954575 84.276083 10.664305 -10.602556 1.485738 1.207101 -12.254524 12.785909 -28.952527 -2.079592 0.582798 22.026490 1.583667 9.906485 -3.358174 0.851701 -0.000000 -18.448300 10.331697 -3.918185 -1.489288 -0.965288 -15.558239 3.740307 -0.663269 -2.787857 38.036743 -1.271379 -3.801733 20.206881 -1.366000 0.000000 -81.210601 -3.323246 0.429152 -1.938299 -1.106526 0.590642 -2.621997 -4.738681 0.530937 2.938716 9.994459 -11.998343 -9.955345 -1.516360 -0.088154 -0.597149 0.000000 0.000000 0.000000 -5.173601 26.686794 0.986358 -81.207857 32.380533 6.083191 -3.777860 -26.094763 -0.027174 -9.767998 5.621770 -0.493220 -0.014110 -0.146715 -0.000000 0.000000 0.000000 0.000000 0.000000 0.000000 0.000000 11.265512 -7.150404 0.917888 36.164516 15.819357 7.501417 2.214807 39.625575 0.013215 3.680171 5.711667 0.185591 0.046660 -0.118983 0.000000 0.000000 0.000000 0.000000 0.000000 0.000000 0.000000 
-10.297113 16.974559 -2.626591 12.454118 84.427225 14.040993 -10.644516 1.537405 1.049141 -12.526547 13.434450 -28.799766 -2.089216 0.663829 23.222918 1.518916 9.534213 -3.571982 0.758600 -0.000000 -19.202100 10.462642 -3.874915 -1.509632 -1.407185 -15.955104 2.352439 -0.807980 -2.887414 40.844918 -1.511662 -5.221198 20.735879 -1.972400 0.000000 -77.208701 -3.733036 0.180808 -1.814210 -1.179515 0.373288 -2.616786 -4.765442 0.312330 2.869758 10.137522 -12.161930 -9.943357 -1.555219 -0.091402 -0.593121 0.000000 0.000000 0.000000 -4.866994 26.163339 0.969254 -80.644153 32.067443 7.135508 -3.761187 -26.758693 -0.027355 -9.913019 5.561106 -0.495220 -0.013827 -0.145881 -0.000000 0.000000 0.000000 0.000000 0.000000 0.000000 0.000000 11.559229 -7.399373 0.885812 36.969721 15.233241 7.807153 2.258051 39.764776 0.013304 3.730083 5.686153 0.187103 0.049272 -0.114688 0.000000 0.000000 0.000000 0.000000 0.000000 0.000000 0.000000 
-10.097303 16.960336 -2.619864 15.680741 84.577496 17.201792 -10.660145 1.581908 0.921027 -12.751804 13.937057 -28.669850 -2.098525 0.732562 24.419106 1.467558 9.179873 -4.030557 0.631900 -0.000000 -19.939000 10.591720 -3.825761 -1.524773 -1.706882 -16.294344 0.862495 -0.916182 -2.989738 43.554187 -1.721751 -6.674162 20.556256 -2.578000 0.000000 -72.822199 -4.076875 -0.065619 -1.717245 -1.241085 0.151849 -2.615109 -4.797150 0.089730 2.805601 10.274287 -12.350654 -9.940022 -1.598238 -0.094935 -0.591049 0.000000 0.000000 0.000000 -4.582660 25.638736 0.946186 -79.969232 31.640397 8.190158 -3.742951 -27.398617 -0.027427 -10.025261 5.479396 -0.493617 -0.014053 -0.144690 -0.000000 0.000000 0.000000 0.000000 0.000000 0.000000 0.000000 11.865607 -7.668806 0.853221 37.813138 14.605202 8.124127 2.304673 39.894527 0.013413 3.776700 5.674443 0.188817 0.052093 -0.110387 0.000000 0.000000 0.000000 0.000000 0.000000 0.000000 0.000000 
-9.899802 16.946514 -2.613486 18.396938 84.689175 19.900730 -10.656750 1.624068 0.822195 -12.913936 14.301905 -28.531403 -2.107122 0.790997 25.579237 1.433946 8.881139 -4.699586 0.482400 -0.000000 -20.664800 10.711959 -3.766780 -1.535991 -1.856892 -16.555647 -0.715126 -0.999559 -3.096312 46.127722 -1.895780 -8.085375 19.666690 -3.105900 0.000000 -68.363000 -4.338587 -0.297307 -1.645721 -1.288905 -0.061595 -2.616488 -4.834884 -0.124595 2.748162 10.402962 -12.555601 -9.944614 -1.645338 -0.098747 -0.590798 0.000000 0.000000 0.000000 -4.333850 25.132591 0.916803 -79.193545 31.088487 9.202868 -3.723376 -27.988791 -0.027341 -10.086262 5.372499 -0.487008 -0.014923 -0.143082 -0.000000 0.000000 0.000000 0.000000 0.000000 0.000000 0.000000 12.180647 -7.944237 0.820991 38.687052 13.940473 8.440613 2.355476 39.991528 0.013541 3.818609 5.676601 0.190733 0.055110 -0.106118 0.000000 0.000000 0.000000 0.000000 0.000000 0.000000 0.000000 
-9.704542 16.933669 -2.608122 20.395320 84.733253 21.919466 -10.645221 1.667745 0.749570 -13.004552 14.549373 -28.355112 -2.115128 0.841035 26.665504 1.421122 8.670171 -5.530789 0.319100 -0.000000 -21.382000 10.814613 -3.693913 -1.543300 -1.857930 -16.721616 -2.362803 -1.066140 -3.204430 48.530419 -2.032835 -9.389312 18.111600 -3.489600 -0.000001 -64.007100 -4.512007 -0.504304 -1.597420 -1.322138 -0.257198 -2.621179 -4.878917 -0.320770 2.696664 10.518819 -12.751588 -9.952202 -1.696453 -0.102893 -0.591110 0.000000 0.000000 0.000000 -4.127779 24.657214 0.883148 -78.333535 30.408190 10.131977 -3.703439 -28.504988 -0.027057 -10.079979 5.237762 -0.474493 -0.016592 -0.141007 -0.000000 0.000000 0.000000 0.000000 0.000000 0.000000 0.000000 12.490957 -8.195289 0.788459 39.602078 13.217057 8.715740 2.411679 40.039068 0.013691 3.864597 5.685311 0.193050 0.058206 -0.101894 0.000000 0.000000 0.000000 0.000000 0.000000 0.000000 0.000000 
